<svg width="41" height="32" fill="none" xmlns="http://www.w3.org/2000/svg"><path d="M36.483 9.01c0-.35 0-.698-.024-1.044a16.585 16.585 0 0 0 4.108-4.182 16.683 16.683 0 0 1-4.73 1.27 8.138 8.138 0 0 0 3.62-4.468 16.697 16.697 0 0 1-5.228 1.96A8.32 8.32 0 0 0 28.225 0c-4.521 0-8.242 3.65-8.242 8.087 0 .377.517 1.83.214 1.83-6.63 0-12.791-3.398-16.97-8.443-2.174 3.671-1.05 8.429 2.549 10.786a8.293 8.293 0 0 1-3.737-1.011v.102c0 3.832 2.778 7.162 6.606 7.92a8.373 8.373 0 0 1-3.718.14c1.076 3.283 4.179 5.546 7.693 5.61a16.727 16.727 0 0 1-12.187 3.35 23.642 23.642 0 0 0 12.621 3.623C28.2 32 36.483 19.688 36.483 9.01Z" fill="#fff"/></svg>